# xmcd
#
# Track frame offsets:
#	150
#	15895
#	46813
#	59948
#	77875
#	102157
#	121535
#	150913
#	168003
#	184911
#	216823
#	247160
#
# Disc length: 3899
#
# Revision: 2
# Processed by: cddbd v1.5.1PL0 Copyright (c) Steve Scherf et al.
# Submitted via: audiograbber 1.80
# Normalized: r1:TDELIM( - )
#
DISCID=900f390c
DTITLE=Golden instrumental - Legends
DYEAR=1900
DGENRE=
TTITLE0=Yello - Poom Shanka
TTITLE1=Chicane - Offshare
TTITLE2=Deep Forest - Katharina
TTITLE3=Enigma - The Rivers To Belief
TTITLE4=Andreas Vollenweider - Hirzel
TTITLE5=Jean Michel Jarre - Oxygen 10
TTITLE6=Mike Oldfild - Women Of Ireland
TTITLE7=The Alan Parsons Project - Paseo De Gracia
TTITLE8=Vanessa May - Storm
TTITLE9=Sacred Spirit - Legends
TTITLE10=Vangelis - Spanish Harbour
TTITLE11=Klaus Schulze - Vocs In The Dark II
EXTD=
EXTT0=
EXTT1=
EXTT2=
EXTT3=
EXTT4=
EXTT5=
EXTT6=
EXTT7=
EXTT8=
EXTT9=
EXTT10=
EXTT11=
PLAYORDER=
